<?xml version="1.0" encoding="UTF-8"?>
<!DOCTYPE svg PUBLIC "-//W3C//DTD SVG 1.1//EN" "http://www.w3.org/Graphics/SVG/1.1/DTD/svg11.dtd">
<!-- Creator: CorelDRAW X7 -->
<svg xmlns="http://www.w3.org/2000/svg" xml:space="preserve" width="428px" height="480px" version="1.1" style="shape-rendering:geometricPrecision; text-rendering:geometricPrecision; image-rendering:optimizeQuality; fill-rule:evenodd; clip-rule:evenodd"
viewBox="0 0 428 480"
 xmlns:xlink="http://www.w3.org/1999/xlink">
 <defs>
  <style type="text/css">
   <![CDATA[
    .fil1 {fill:#25185A}
    .fil0 {fill:#FAD605}
   ]]>
  </style>
 </defs>
 <g id="Layer_x0020_1">
  <metadata id="CorelCorpID_0Corel-Layer"/>
  <g id="_2011595964688">
   <rect class="fil0" width="428" height="480"/>
   <path class="fil1" d="M0 0l428 0 0 480 -428 0 0 -480zm14 15l400 0 0 450 -400 0 0 -450z"/>
   <path class="fil1" d="M27 452l20 0c0,-4 0,-7 0,-11 0,-51 41,-92 91,-92 51,0 92,41 92,92 0,4 0,7 -1,11l172 0 0 -140 -22 0c0,3 1,6 1,10 0,41 -33,75 -73,75 -40,0 -72,-34 -72,-75l0 -294 -151 0 0 29c66,0 119,54 119,122 0,67 -53,122 -119,122l-57 0 0 151z"/>
  </g>
 </g>
</svg>
